<svg viewBox="20 20 60 60" preserveAspectRatio="xMidYMid meet" xmlns="http://www.w3.org/2000/svg"
     xmlns:xlink="http://www.w3.org/1999/xlink">
    <path fill="#cdcdce"
          d="M52.64 31.98h-2.99v2c0 .55-.45 1-1 1s-1-.45-1-1v-2h-5v2c0 .55-.45 1-1 1s-1-.45-1-1v-2h-5v2c0 .55-.45 1-1 1s-1-.45-1-1v-2h-1.26c-2.61 0-4.74 2.04-4.74 4.55v25.9c0 2.51 2.13 4.55 4.74 4.55h16.26c.3 0 .55.13.74.34a5.979 5.979 0 0 0 3.26-5.33l-.01-30.01z"/>
    <circle cx="65.65" cy="62.98" r="8" fill="#fff"/>
    <path d="M64.91 29.98h-1.26v-2c0-.55-.45-1-1-1s-1 .45-1 1v2h-5v-2c0-.55-.45-1-1-1s-1 .45-1 1v2h-5v-2c0-.55-.45-1-1-1s-1 .45-1 1v2h-5v-2c0-.55-.45-1-1-1s-1 .45-1 1v2h-5v-2c0-.55-.45-1-1-1s-1 .45-1 1v2h-1.26c-3.72 0-6.74 2.94-6.74 6.55v25.9c0 3.61 3.02 6.55 6.74 6.55h16.26c.55 0 1-.45 1-1s-.45-1-1-1H32.39c-2.61 0-4.74-2.04-4.74-4.55v-25.9c0-2.51 2.13-4.55 4.74-4.55h1.26v2c0 .55.45 1 1 1s1-.45 1-1v-2h5v2c0 .55.45 1 1 1s1-.45 1-1v-2h5v2c0 .55.45 1 1 1s1-.45 1-1v-2h5v2c0 .55.45 1 1 1s1-.45 1-1v-2h5v2c0 .55.45 1 1 1s1-.45 1-1v-2h1.26c2.61 0 4.74 2.04 4.74 4.55v11.45c0 .55.45 1 1 1s1-.45 1-1V36.53c0-3.61-3.02-6.55-6.74-6.55z"/>
    <path d="M48.65 40.98c-.55 0-1 .45-1 1v2c0 .55.45 1 1 1s1-.45 1-1v-2c0-.55-.45-1-1-1zM48.65 48.98c-.55 0-1 .45-1 1v2c0 .55.45 1 1 1s1-.45 1-1v-2c0-.55-.45-1-1-1zM48.65 56.98c-.55 0-1 .45-1 1v2c0 .55.45 1 1 1s1-.45 1-1v-2c0-.55-.45-1-1-1zM42.65 41.98c0-.55-.45-1-1-1s-1 .45-1 1v2c0 .55.45 1 1 1s1-.45 1-1v-2zM42.65 49.98c0-.55-.45-1-1-1s-1 .45-1 1v2c0 .55.45 1 1 1s1-.45 1-1v-2zM41.65 56.98c-.55 0-1 .45-1 1v2c0 .55.45 1 1 1s1-.45 1-1v-2c0-.55-.45-1-1-1zM35.65 41.98c0-.55-.45-1-1-1s-1 .45-1 1v2c0 .55.45 1 1 1s1-.45 1-1v-2zM35.65 49.98c0-.55-.45-1-1-1s-1 .45-1 1v2c0 .55.45 1 1 1s1-.45 1-1v-2zM34.65 56.98c-.55 0-1 .45-1 1v2c0 .55.45 1 1 1s1-.45 1-1v-2c0-.55-.45-1-1-1zM55.65 40.98c-.55 0-1 .45-1 1v2c0 .55.45 1 1 1s1-.45 1-1v-2c0-.55-.45-1-1-1zM55.65 48.98c-.55 0-1 .45-1 1v2c0 .55.45 1 1 1s1-.45 1-1v-2c0-.55-.45-1-1-1zM63.65 41.98c0-.55-.45-1-1-1s-1 .45-1 1v2c0 .55.45 1 1 1s1-.45 1-1v-2z"/>
    <path d="M65.65 72.98c-5.51 0-10-4.49-10-10s4.49-10 10-10 10 4.49 10 10-4.49 10-10 10zm0-18c-4.41 0-8 3.59-8 8s3.59 8 8 8 8-3.59 8-8-3.59-8-8-8z"/>
    <path d="M69.65 63.98h-4c-.55 0-1-.45-1-1v-5c0-.55.45-1 1-1s1 .45 1 1v4h3c.55 0 1 .45 1 1s-.45 1-1 1z"/>
</svg>
