<svg viewBox="20 20 60 60" preserveAspectRatio="xMidYMid meet" xmlns="http://www.w3.org/2000/svg"
     xmlns:xlink="http://www.w3.org/1999/xlink">
    <circle cx="53.13" cy="51.06" r="23" fill="#cdcdce"/>
    <path fill="#fff" d="M35.02 52.95c-3.31 0-6-2.69-6-6s2.69-6 6-6h7v8h-2c-.55 0-1 .45-1 1s.45 1 1 1h2v2h-7z"/>
    <path d="M33.02 29.95h-4c-.55 0-1-.45-1-1s.45-1 1-1h4c.55 0 1 .45 1 1s-.45 1-1 1zM38.02 29.95h-1c-.55 0-1-.45-1-1s.45-1 1-1h1c.55 0 1 .45 1 1s-.45 1-1 1zM36.02 48.95h-1c-.55 0-1 .45-1 1s.45 1 1 1h1c.55 0 1-.45 1-1s-.45-1-1-1z"/>
    <path d="M64.02 41.04V34.9c0-.39-.07-.76-.21-1.11-.3-.74-.87-1.33-1.6-1.64a2.96 2.96 0 0 0-2.3-.03l-17.08 6.83h-7.81c-4.41 0-8 3.59-8 8s3.59 8 8 8h1.38l6.72 13.45a1.007 1.007 0 0 0 1.35.44c.49-.25.69-.85.45-1.34l-6.28-12.55h4.19l17.08 6.83a3.009 3.009 0 0 0 4.11-2.79v-6.14c2.83-.48 5-2.94 5-5.91s-2.17-5.43-5-5.9zm-29 11.91c-3.31 0-6-2.69-6-6s2.69-6 6-6h7v8h-2c-.55 0-1 .45-1 1s.45 1 1 1h2v2h-7zm27 6.04c0 .68-.74 1.18-1.37.93l-16.63-6.65v-2.32h2c.55 0 1-.45 1-1s-.45-1-1-1h-2v-8.32l16.63-6.65c.25-.1.52-.1.77.01.25.1.44.3.54.55.05.12.07.24.07.37v24.08h-.01zm2-8.19v-7.72c1.72.45 3 2 3 3.86s-1.28 3.42-3 3.86zM69.02 38.95c.17 0 .35-.05.51-.14l5-3c.47-.28.63-.9.34-1.37a.995.995 0 0 0-1.37-.34l-5 3c-.47.28-.63.9-.34 1.37.19.3.52.48.86.48zM74.53 58.09l-5-3c-.47-.28-1.09-.13-1.37.34-.28.47-.13 1.09.34 1.37l5 3c.16.1.34.14.51.14.34 0 .67-.17.86-.49a.977.977 0 0 0-.34-1.36zM76.02 45.95h-3c-.55 0-1 .45-1 1s.45 1 1 1h3c.55 0 1-.45 1-1s-.45-1-1-1z"/>
    <path fill="#fff"
          d="M62.02 58.99c0 .68-.74 1.18-1.37.93l-16.63-6.65v-2.32h2c.55 0 1-.45 1-1s-.45-1-1-1h-2v-8.32l16.63-6.65c.25-.1.52-.1.77.01.25.1.44.3.54.55.05.12.07.24.07.37v24.08h-.01z"/>
</svg>
