<svg viewBox="20 20 60 60" preserveAspectRatio="xMidYMid meet" xmlns="http://www.w3.org/2000/svg"
     xmlns:xlink="http://www.w3.org/1999/xlink">
    <path d="M74.21 55.98h-4.67c-1.08 0-2.14.35-3 1l-1.26.94c-.46.29-1.09.15-1.38-.31l-6.07-9.66a6.008 6.008 0 0 0-7.25-2.4l-4.29 1.67c-.77.3-1.65-.02-2.05-.72l-.05-.1c-.26-.56-.02-1.23.54-1.49l9.21-4.3a6.04 6.04 0 0 1 6.03.55l3.67 2.62c.35.25.83.25 1.18-.01l2.93-2.2c.51-.39 1.15-.6 1.8-.6h4.67c.55 0 1-.45 1-1s-.45-1-1-1h-4.67c-1.08 0-2.14.35-3 1l-2.35 1.76-3.08-2.2a8.012 8.012 0 0 0-8.03-.74l-9.21 4.3c-1.56.73-2.24 2.59-1.51 4.14.04.08.07.15.12.24.9 1.57 2.84 2.25 4.52 1.6l4.29-1.67c1.78-.69 3.82-.02 4.84 1.6l6.07 9.66a3.002 3.002 0 0 0 4.14.94c.07-.04.14-.09.2-.14l1.2-.9c.51-.39 1.15-.6 1.8-.6h4.67c.55 0 1-.45 1-1s-.46-.98-1.01-.98zM26.21 40.98h4.67c.65 0 1.29.21 1.8.6l2.93 2.2c.18.13.39.2.6.2.2 0 .41-.06.58-.19l3.67-2.62c1.76-1.25 4.07-1.47 6.1-.52.5.23 1.06 0 1.29-.5.23-.5-.02-1.11-.52-1.35a8.012 8.012 0 0 0-8.03.74l-3.08 2.2-2.35-1.76c-.86-.65-1.93-1-3-1H26.2c-.55 0-1 .45-1 1s.45 1 1.01 1zM29.21 33.98h4c.55 0 1-.45 1-1s-.45-1-1-1h-4c-.55 0-1 .45-1 1s.44 1 1 1zM37.21 33.98h1c.55 0 1-.45 1-1s-.45-1-1-1h-1c-.55 0-1 .45-1 1s.44 1 1 1zM66.21 64.98h-3c-.55 0-1 .45-1 1s.45 1 1 1h3c.55 0 1-.45 1-1s-.45-1-1-1zM71.21 64.98h-1c-.55 0-1 .45-1 1s.45 1 1 1h1c.55 0 1-.45 1-1s-.45-1-1-1z"/>
    <path d="M54.92 50.81a3.02 3.02 0 0 0-3.58-1.2l-3.99 1.5a3.98 3.98 0 0 1-3.73-.49l-2.24-1.6a.992.992 0 0 0-1.39.23c-.32.45-.22 1.07.23 1.4l2.24 1.6a6.003 6.003 0 0 0 5.59.74l3.99-1.5c.44-.17.94 0 1.2.4l5.7 8.96-6.85 6.85-1.11-.74.07-.08c.92-1.03.84-2.61-.18-3.53l-7.43-6.69a2.5 2.5 0 0 0-3.53.19l-1.53 1.7-2.58-1.72a4.96 4.96 0 0 0-2.77-.84h-6.79c-.55 0-1 .45-1 1s.45 1 1 1h6.79c.59 0 1.17.17 1.66.5l2.64 1.76c-.17.84.09 1.74.77 2.36l7.43 6.69a2.5 2.5 0 0 0 3.53-.19l.59-.65 2.04 1.36c.17.11.36.17.55.17.26 0 .51-.1.71-.29l7.43-7.43c.67-.67.78-1.69.27-2.49l-5.73-8.97zm-7.73 17.12a.5.5 0 0 1-.36-.13l-5.15-4.63-2.29-2.06c-.13-.11-.16-.25-.17-.35s.01-.23.13-.36l2.01-2.23a.5.5 0 0 1 .71-.04l7.43 6.69c.21.18.22.5.04.71l-.26.29L48.23 67l-.69.77c-.11.13-.25.16-.35.16z"/>
    <path fill="#cdcdce"
          d="M71.95 53.24c0-.36-.05-.71-.15-1.06l-2.18-7.41a3.455 3.455 0 0 0-2.87-2.45l-1.94 1.46a.99.99 0 0 1-1.18.01l-3.67-2.62a5.993 5.993 0 0 0-6.03-.55l-9.21 4.3c-.56.26-.8.93-.54 1.49l.05.1c.4.7 1.29 1.01 2.05.72l4.29-1.67a6 6 0 0 1 7.25 2.4l6.07 9.66c.29.47.92.61 1.38.31l1.26-.94c.86-.65 1.92-1 3-1h1.2c.75-.69 1.22-1.66 1.22-2.75z"/>
</svg>
