<svg viewBox="20 20 60 60" preserveAspectRatio="xMidYMid meet" xmlns="http://www.w3.org/2000/svg"
     xmlns:xlink="http://www.w3.org/1999/xlink">
    <path fill="#fff"
          d="M64.27 62.21h-4.52c-.55 0-1-.45-1-1 0-.04.02-.07.02-.11h-3.91l-3.18 3.42c-.73.78-1.72 1.24-2.78 1.28h-.15a4 4 0 0 1-2.72-1.07l-.21-.21-3.18-3.42h-3.91c0 .04.02.07.02.11 0 .55-.45 1-1 1h-4.52l-6.4 8h43.84l-6.4-8z"/>
    <path fill="#cdcdce"
          d="M48.75 25.21v11c2.76 0 5 2.24 5 5s-2.24 5-5 5v7.27c0 1.39.58 2.72 1.6 3.66 1.2 1.12 2.81 1.51 4.31 1.24l6.2-6.68c.03-.06.07-.11.11-.16 2.44-2.88 3.78-6.55 3.78-10.33 0-8.83-7.18-16-16-16z"/>
    <path d="M33.75 66.21c-.55 0-1 .45-1 1s.45 1 1 1h1c.55 0 1-.45 1-1s-.45-1-1-1h-1zM37.75 67.21c0 .55.45 1 1 1h4c.55 0 1-.45 1-1s-.45-1-1-1h-4c-.55 0-1 .44-1 1z"/>
    <path d="m73.53 70.58-8-10a1 1 0 0 0-.78-.38h-5c-.55 0-1 .45-1 1s.45 1 1 1h4.52l6.4 8H26.83l6.4-8h4.52c.55 0 1-.45 1-1s-.45-1-1-1h-5a1 1 0 0 0-.78.38l-8 10a1.004 1.004 0 0 0 .78 1.63h48a1.004 1.004 0 0 0 .78-1.63z"/>
    <path d="M48.75 23.21c-9.93 0-18 8.07-18 18 0 4.17 1.45 8.22 4.1 11.44.04.09.1.17.17.24l10.8 11.63.21.21a4 4 0 0 0 2.72 1.07h.15c1.07-.04 2.06-.49 2.78-1.28l10.8-11.63c.07-.07.12-.15.16-.23a18.01 18.01 0 0 0 4.11-11.45c0-9.93-8.08-18-18-18zm12.21 28.33c-.04.05-.08.1-.11.16L50.21 63.16c-.75.81-2.02.85-2.83.1-.04-.03-.07-.07-.1-.1L36.64 51.7c-.03-.06-.07-.11-.11-.16a15.996 15.996 0 0 1-3.78-10.33c0-8.82 7.18-16 16-16s16 7.18 16 16c0 3.78-1.35 7.45-3.79 10.33z"/>
    <path d="M48.75 48.21c-3.86 0-7-3.14-7-7s3.14-7 7-7 7 3.14 7 7-3.14 7-7 7zm0-12c-2.76 0-5 2.24-5 5s2.24 5 5 5 5-2.24 5-5-2.25-5-5-5z"/>
    <circle fill="#fff" cx="48.75" cy="41.21" r="5"/>
</svg>
