<svg viewBox="20 20 60 60" preserveAspectRatio="xMidYMid meet" xmlns="http://www.w3.org/2000/svg"
     xmlns:xlink="http://www.w3.org/1999/xlink">
    <path d="M50.54 30.77c-11.58 0-21 9.42-21 21s9.42 21 21 21 21-9.42 21-21-9.42-21-21-21zm16.92 12.39-16.69 7.42-12.92-12.91c3.37-3.03 7.81-4.9 12.69-4.9 7.38 0 13.77 4.23 16.92 10.39zM50.54 70.77c-10.48 0-19-8.52-19-19 0-4.88 1.86-9.32 4.9-12.69l12.69 12.69-5.31 5.31a.996.996 0 0 0 .71 1.7c.26 0 .51-.1.71-.29l5.89-5.89 17.15-7.62c.81 2.11 1.27 4.39 1.27 6.78-.01 10.48-8.53 19.01-19.01 19.01z"/>
    <path d="m40.81 60.08-1.98 1.98a.996.996 0 0 0 .71 1.7c.26 0 .51-.1.71-.29l1.98-1.98c.39-.39.39-1.02 0-1.41s-1.03-.39-1.42 0z"/>
    <path fill="#cdcdce"
          d="M50.54 70.77c10.48 0 19-8.52 19-19 0-2.39-.46-4.67-1.27-6.78l-17.15 7.62-5.89 5.89c-.2.2-.45.29-.71.29s-.51-.1-.71-.29l-1.58 1.58c.39.39.39 1.02 0 1.41l-1.98 1.98c-.2.2-.45.29-.71.29-.26 0-.51-.1-.71-.29l-1.72 1.72c3.44 3.45 8.19 5.58 13.43 5.58z"/>
</svg>
