<svg viewBox="20 20 60 60" preserveAspectRatio="xMidYMid meet" xmlns="http://www.w3.org/2000/svg"
     xmlns:xlink="http://www.w3.org/1999/xlink">
    <path d="M73.14 69.76h-40v-40c0-.55-.45-1-1-1s-1 .45-1 1v40h-2c-.55 0-1 .45-1 1s.45 1 1 1h2v2c0 .55.45 1 1 1s1-.45 1-1v-2h40c.55 0 1-.45 1-1s-.45-1-1-1z"/>
    <path d="M45.14 52.76c.26 0 .51-.1.71-.29l1-1a.996.996 0 1 0-1.41-1.41l-1 1a.996.996 0 0 0 .7 1.7zM49.14 48.76c.26 0 .51-.1.71-.29l5-5a.996.996 0 1 0-1.41-1.41l-5 5a.996.996 0 0 0 .7 1.7z"/>
    <path d="M65.52 36.84a.995.995 0 0 0-.38-.08h-6c-.55 0-1 .45-1 1s.45 1 1 1h3.59l-24.3 24.29a.996.996 0 0 0 .71 1.7c.26 0 .51-.1.71-.29l24.29-24.29v3.59c0 .55.45 1 1 1s1-.45 1-1v-6c0-.42-.26-.77-.62-.92z"/>
    <circle id="a" cx="73.14" cy="64.76" r="1"/>
    <circle id="b" cx="73.14" cy="57.76" r="1"/>
    <circle id="c" cx="73.14" cy="50.76" r="1"/>
    <circle id="d" cx="73.14" cy="43.76" r="1"/>
    <circle id="e" cx="73.14" cy="36.76" r="1"/>
    <circle id="f" cx="38.14" cy="29.76" r="1"/>
    <circle id="g" cx="45.14" cy="29.76" r="1"/>
    <circle id="h" cx="52.14" cy="29.76" r="1"/>
    <circle id="i" cx="59.14" cy="29.76" r="1"/>
    <circle id="j" cx="66.14" cy="29.76" r="1"/>
    <circle id="k" cx="73.14" cy="29.76" r="1"/>
    <path fill="#cdcdce"
          d="M64.14 43.76v-3.59l-24.3 24.3c-.2.2-.45.29-.71.29v5h26v-25c-.55 0-.99-.45-.99-1z"/>
</svg>
