<svg viewBox="20 20 60 60" preserveAspectRatio="xMidYMid meet" xmlns="http://www.w3.org/2000/svg"
     xmlns:xlink="http://www.w3.org/1999/xlink">
    <path fill="#cdcdce"
          d="M48.05 34.43h-13.4c-1.65 0-3 1.35-3 3v24c0 1.65 1.35 3 3 3h6c.55 0 1 .45 1 1v5.77l7.34-6.52c.18-.16.42-.25.66-.25h6v-18.5c0-5.17-3.13-9.6-7.6-11.5z"/>
    <path d="M71.65 47.43c-.55 0-1 .45-1 1v13c0 1.65-1.35 3-3 3h-18c-.25 0-.48.09-.66.25l-7.34 6.52v-5.77c0-.55-.45-1-1-1h-6c-1.65 0-3-1.35-3-3v-24c0-1.65 1.35-3 3-3h18c.55 0 1-.45 1-1s-.45-1-1-1h-18c-2.76 0-5 2.24-5 5v24c0 2.76 2.24 5 5 5h5v7c0 .39.23.75.59.91.13.06.27.09.41.09.24 0 .48-.09.66-.25l8.72-7.75h17.62c2.76 0 5-2.24 5-5v-13c0-.55-.45-1-1-1z"/>
    <path d="M50.65 49.43h2c.55 0 1-.45 1-1s-.45-1-1-1h-2c-.55 0-1 .45-1 1s.45 1 1 1zM58.65 49.43c.55 0 1-.45 1-1s-.45-1-1-1h-1c-.55 0-1 .45-1 1s.45 1 1 1h1zM67.65 53.43c0-.55-.45-1-1-1h-5c-.55 0-1 .45-1 1s.45 1 1 1h5c.55 0 1-.45 1-1zM50.65 54.43h7c.55 0 1-.45 1-1s-.45-1-1-1h-7c-.55 0-1 .45-1 1s.45 1 1 1zM50.65 59.43h11c.55 0 1-.45 1-1s-.45-1-1-1h-11c-.55 0-1 .45-1 1s.45 1 1 1zM70.65 69.43h-19c-.55 0-1 .45-1 1s.45 1 1 1h19c.55 0 1-.45 1-1s-.45-1-1-1zM76.65 69.43h-2c-.55 0-1 .45-1 1s.45 1 1 1h2c.55 0 1-.45 1-1s-.45-1-1-1zM67.65 44.43c6.07 0 11-4.93 11-11s-4.93-11-11-11-11 4.93-11 11 4.93 11 11 11zm8.93-12h-2.96c-.13-2.76-.79-5.19-1.81-6.97a9.017 9.017 0 0 1 4.77 6.97zm-2.96 2h2.96a9.005 9.005 0 0 1-4.76 6.97c1.01-1.78 1.67-4.21 1.8-6.97zm-4.97-9.67c1.44.94 2.78 3.79 2.97 7.67h-2.97v-7.67zm0 9.67h2.97c-.2 3.87-1.53 6.73-2.97 7.67v-7.67zm-2-9.67v7.67h-2.97c.19-3.87 1.53-6.73 2.97-7.67zm0 9.67v7.67c-1.44-.94-2.78-3.79-2.97-7.67h2.97zm-3.17-8.97c-1.01 1.78-1.67 4.21-1.81 6.97h-2.96a9.04 9.04 0 0 1 4.77-6.97zm-1.8 8.97c.13 2.76.79 5.19 1.81 6.97a9.005 9.005 0 0 1-4.76-6.97h2.95zM35.65 36.43c-1.1 0-2 .9-2 2v12c0 1.1.9 2 2 2h9c1.1 0 2-.9 2-2v-12c0-1.1-.9-2-2-2h-9zm9 14h-9v-12h9v12z"/>
    <path fill="#fff" d="M44.65 50.43h-9v-12h9z"/>
</svg>
