<svg width="16" height="17" viewBox="0 0 16 17" version="1.1" xmlns="http://www.w3.org/2000/svg"
     xmlns:xlink="http://www.w3.org/1999/xlink">
    <path fill="currentColor"
          d="M10.3797872,8.29528106 L15.7658713,2.9091969 C16.0773762,2.59769203 16.0773762,2.09218414 15.7658713,1.78017926 L14.5143518,0.528659706 C14.2028469,0.217154839 13.697339,0.217154839 13.3853341,0.528659706 L7.99975,5.91524387 L2.61366584,0.529159714 C2.30216097,0.217654847 1.79665307,0.217654847 1.4846482,0.529159714 L0.23362865,1.78017926 C-0.0778762168,2.09168413 -0.0778762168,2.59719203 0.23362865,2.9091969 L5.61971281,8.29528106 L0.23362865,13.6813652 C-0.0778762168,13.9928701 -0.0778762168,14.498378 0.23362865,14.8103829 L1.48514821,16.0619024 C1.79665307,16.3734073 2.30216097,16.3734073 2.61416585,16.0619024 L7.99975,10.6753182 L13.3858342,16.0614024 C13.697339,16.3729073 14.2028469,16.3729073 14.5148518,16.0614024 L15.7663713,14.8098829 C16.0778762,14.498378 16.0778762,13.9928701 15.7663713,13.6808652 L10.3797872,8.29528106 Z"/>
</svg>
